# AST/ASF file generated using VICON BodyLanguage
# -----------------------------------------------
:version 1.10
:name VICON
:units
  mass 1.0
  length 0.45
  angle deg
:documentation
   .ast/.asf automatically generated from VICON data using
   VICON BodyBuilder and BodyLanguage model FoxedUp or BRILLIANT.MOD
:root
   order TX TY TZ RX RY RZ
   axis XYZ
   position 0 0 0  
   orientation 0 0 0 
:bonedata
  begin
     id 1 
     name lhipjoint
     direction 0.643824 -0.71708 0.266994 
     length 2.52133 
     axis 0 0 0  XYZ
  end
  begin
     id 2 
     name lfemur
     direction 0.34202 -0.939693 0  
     length 7.51824  
     axis 0 0 20  XYZ
    dof rx ry rz
    limits (-160.0 20.0)
           (-70.0 70.0)
           (-60.0 70.0)
  end
  begin
     id 3 
     name ltibia
     direction 0.34202 -0.939693 0   
     length 7.3685   
     axis 0 0 20   XYZ
    dof rx
    limits (-10.0 170.0)
  end
  begin
     id 4 
     name lfoot
     direction 0.105419 -0.289636 0.951314   
     length 2.20972   
     axis -90 7.62852e-016 20   XYZ
    dof rx rz
    limits (-45.0 90.0)
           (-70.0 20.0)
  end
  begin
     id 5 
     name ltoes
     direction 1.53549e-011 -4.21833e-011 1   
     length 1.10139   
     axis -90 7.62852e-016 20   XYZ
    dof rx
    limits (-90.0 20.0)
  end
  begin
     id 6 
     name rhipjoint
     direction -0.608823 -0.743445 0.276811   
     length 2.43192  
     axis 0 0 0  XYZ 
  end
  begin
     id 7 
     name rfemur
     direction -0.34202 -0.939693 0   
     length 7.69715   
     axis 0 0 -20   XYZ
    dof rx ry rz
    limits (-160.0 20.0)
           (-70.0 70.0)
           (-70.0 60.0)
  end
  begin
     id 8 
     name rtibia
     direction -0.34202 -0.939693 0   
     length 7.44924   
     axis 0 0 -20   XYZ
    dof rx
    limits (-10.0 170.0)
 end
 begin
     id 9 
     name rfoot
     direction -0.103614 -0.284677 0.953007   
     length 2.22623  
     axis -90 -7.62852e-016 -20   XYZ
    dof rx rz
    limits (-45.0 90.0)
           (-20.0 70.0)
  end
  begin
     id 10 
     name rtoes
     direction -1.53537e-011 -4.22026e-011 1   
     length 1.11   
     axis -90 -7.62852e-016 -20   XYZ
    dof rx
    limits (-90.0 20.0)
  end
  begin
     id 11 
     name lowerback
     direction -0.0101212 0.99662 -0.0815298   
     length 2.08277   
     axis 0 0 0   XYZ
    dof rx ry rz
    limits (-20.0 45.0)
           (-30.0 30.0)
           (-30.0 30.0)
  end
  begin
     id 12 
     name upperback
     direction 0.024314 0.999591 -0.0150645   
     length 2.08524   
     axis 0 0 0   XYZ
    dof rx ry rz
    limits (-20.0 45.0)
           (-30.0 30.0)
           (-30.0 30.0)
  end
  begin
     id 13 
     name thorax
     direction 0.0285959 0.999323 0.0231357   
     length 2.09645   
     axis 0 0 0   XYZ
    dof rx ry rz
    limits (-20.0 45.0)
           (-30.0 30.0)
           (-30.0 30.0)
  end
  begin
     id 14 
     name lowerneck
     direction -0.065512 0.979301 0.191515   
     length 1.63798   
     axis 0 0 0   XYZ
    dof rx ry rz
    limits (-20.0 45.0)
           (-30.0 30.0)
           (-30.0 30.0)
  end
  begin
     id 15 
     name upperneck
     direction 0.0498479 0.98191 -0.182667   
     length 1.68731   
     axis 0 0 0   XYZ
    dof rx ry rz
    limits (-20.0 45.0)
           (-30.0 30.0)
           (-30.0 30.0)
  end
  begin
     id 16
     name head
     direction 0.0230358 0.996257 -0.0833175  
     length 1.69785  
     axis 0 0 0   XYZ
    dof rx ry rz
    limits (-20.0 45.0)
           (-30.0 30.0)
           (-30.0 30.0)
  end
  begin
     id 17 
     name lclavicle
     direction 0.967963 0.201165 -0.150269  
     length 3.63976  
     axis 0 0 0   XYZ
    dof ry rz
    limits (-20.0 10.0)
           (0.0 20.0)
  end
  begin
     id 18 
     name lhumerus
     direction 1 -4.48954e-011 -2.92837e-028   
     length 5.32462   
     axis 180 -30 -90   XYZ
    dof rx ry rz
    limits (-60.0 90.0)
           (-90.0 90.0)
           (-90.0 90.0)
  end
  begin
     id 19
     name lradius
     direction 1 -4.48958e-011 -6.39511e-027   
     length 3.48402   
     axis 180 -30 -90   XYZ
    dof rx
    limits (-10.0 170.0)
  end
  begin
     id 20
     name lwrist
     direction 1 -4.48975e-011 -1.1413e-026   
     length 1.74201   
     axis 6.88575e-015 90 90   XYZ
    dof ry
    limits (-180.0 0.0)
 end
  begin
     id 21 
     name lhand
     direction 1 -4.48899e-011 -2.28192e-026   
     length 0.572476   
     axis 1.45643e-014 90 90   XYZ
    dof rx rz
    limits (-90.0 90.0)
           (-45.0 45.0)
  end
  begin
     id 22 
     name lfingers
     direction 1 -4.49155e-011 -4.5684e-026   
     length 0.461545   
     axis 2.91283e-014 90 90   XYZ
    dof rx
    limits (0.0 90.0)
  end
  begin
     id 23
     name lthumb
     direction 0.707107 -6.34943e-011 0.707107   
     length 0.662688   
     axis -90 45 -2.25915e-014   XYZ
    dof rx rz
    limits (-45.0 45.0)
           (-45.0 45.0)
  end
  begin
     id 24 
     name rclavicle
     direction -0.964103 0.264019 -0.0282629   
     length 3.54491  
     axis 0 0 0   XYZ 
    dof ry rz
    limits (-10.0 20.0)
           (-20.0 0.0)
  end
  begin
     id 25 
     name rhumerus
     direction -1 -4.48964e-011 -2.45032e-027  
     length 5.33589   
     axis 180 30 90   XYZ
    dof rx ry rz
    limits (-90.0 60.0)
           (-90.0 90.0)
           (-90.0 90.0)
  end
  begin
     id 26 
     name rradius
     direction -1 -4.48987e-011 -1.55093e-027   
     length 3.64134   
     axis 180 30 90   XYZ
    dof rx
    limits (-10.0 170.0)
  end
  begin
     id 27 
     name rwrist
     direction -1 -4.4897e-011 -1.14128e-026   
     length 1.82067   
     axis 6.88575e-015 -90 -90   XYZ
    dof ry
    limits (-180.0 0.0)
  end
  begin
     id 28
     name rhand
     direction -1 -4.49021e-011 -2.28301e-026   
     length 0.734811   
     axis 1.45643e-014 -90 -90   XYZ
    dof rx rz
    limits (-90.0 90.0)
           (-45.0 45.0)
  end
  begin
     id 29
     name rfingers
     direction -1 -4.48862e-011 -4.56319e-026   
     length 0.592424   
     axis 2.91283e-014 -90 -90   XYZ
    dof rx
    limits (0.0 90.0)
  end
  begin
     id 30
     name rthumb
     direction -0.707107 -6.34978e-011 0.707107   
     length 0.850605   
     axis -90 -45 2.25915e-014   XYZ
    dof rx rz
    limits (-45.0 45.0)
           (-45.0 45.0)
  end
:hierarchy
  begin
    root lhipjoint rhipjoint lowerback
    lhipjoint lfemur
    lfemur ltibia
    ltibia lfoot
    lfoot ltoes
    rhipjoint rfemur
    rfemur rtibia
    rtibia rfoot
    rfoot rtoes
    lowerback upperback
    upperback thorax
    thorax lowerneck lclavicle rclavicle
    lowerneck upperneck
    upperneck head
    lclavicle lhumerus
    lhumerus lradius
    lradius lwrist
    lwrist lhand lthumb
    lhand lfingers
    rclavicle rhumerus
    rhumerus rradius
    rradius rwrist
    rwrist rhand rthumb
    rhand rfingers
  end

#!OML:ASF F:\VICON\USERDATA\INSTALL\rory3\rory3.ASF
:FULLY-SPECIFIED
:DEGREES
90
root 1.14326 17.5669 12.9254 -174.875 -2.53328 177.378
lowerback 2.27471 -0.983848 -5.9253
upperback -0.461416 -1.46294 1.31933
thorax -1.57104 -0.669442 4.74256
lowerneck -22.4698 -2.81651 -8.8062
upperneck 34.7134 0.481732 3.12392
head 16.2317 0.216967 3.21121
rclavicle -9.34288e-015 6.36111e-015
rhumerus -32.7483 -5.48034 -82.2853
rradius 33.1773
rwrist 20.7294
rhand -20.7714 1.59276
rfingers 7.12502
rthumb 5.59508 -28.3134
lclavicle -9.34288e-015 6.36111e-015
lhumerus -31.2883 6.55922 86.5889
lradius 30.9204
lwrist -5.71497
lhand -12.3849 28.0917
lfingers 7.12502
lthumb 13.686 57.6217
rfemur -22.8186 1.27817 17.8066
rtibia 45.0346
rfoot -20.4249 -3.59044
rtoes 4.69003
lfemur -12.3394 3.26042 -27.7217
ltibia 25.4594
lfoot -15.3839 0.072735
ltoes -0.775707
91
root 1.1378 17.5769 12.9207 -174.889 -2.41954 177.374
lowerback 2.36925 -0.961365 -5.85259
upperback -0.483662 -1.43741 1.29778
thorax -1.65259 -0.654204 4.68077
lowerneck -22.4047 -2.77425 -8.84156
upperneck 34.7235 0.546803 3.16819
head 16.2156 0.249057 3.25019
rclavicle 3.18055e-015 2.22639e-014
rhumerus -32.7674 -5.38772 -82.3191
rradius 33.1587
rwrist 20.6574
rhand -20.7736 1.74895
rfingers 7.12502
rthumb 5.59296 -28.1572
lclavicle 3.18055e-015 2.22639e-014
lhumerus -31.3123 6.60348 86.5613
lradius 30.9315
lwrist -5.47391
lhand -12.4919 28.0313
lfingers 7.12502
lthumb 13.583 57.5682
rfemur -23.2741 1.17125 17.8098
rtibia 45.8553
rfoot -20.2989 -3.78125
rtoes 3.30855
lfemur -12.3287 3.56001 -27.7894
ltibia 25.4046
lfoot -15.3421 0.0746646
ltoes -1.13782
92
root 1.13298 17.5801 12.9125 -174.92 -2.25054 177.34
lowerback 2.44066 -0.935739 -5.7991
upperback -0.496373 -1.40691 1.25445
thorax -1.71191 -0.637425 4.60626
lowerneck -22.3953 -2.71217 -8.8531
upperneck 34.7841 0.645385 3.20961
head 16.2348 0.297545 3.29376
rclavicle -2.98177e-016 5.1684e-015
rhumerus -32.734 -5.26206 -82.3873
rradius 33.065
rwrist 20.6253
rhand -20.8585 1.91587
rfingers 7.12502
rthumb 5.51096 -27.9925
lclavicle -2.98177e-016 5.1684e-015
lhumerus -31.3472 6.75566 86.4786
lradius 30.8824
lwrist -5.30865
lhand -12.5501 27.8792
lfingers 7.12502
lthumb 13.5269 57.4199
rfemur -23.7291 1.18325 17.7621
rtibia 46.6204
rfoot -20.1299 -3.96085
rtoes 2.51857
lfemur -12.291 3.89997 -27.8918
ltibia 25.3556
lfoot -15.3615 0.0925483
ltoes -1.61822
93
root 1.12849 17.5767 12.9058 -174.993 -2.09702 177.254
lowerback 2.61273 -0.916474 -5.84236
upperback -0.521435 -1.39392 1.23968
thorax -1.83561 -0.625886 4.61927
lowerneck -22.3936 -2.66861 -8.91694
upperneck 34.8378 0.756917 3.20106
head 16.2531 0.33625 3.32652
rclavicle -3.18055e-015 1.35174e-014
rhumerus -32.74 -5.07875 -82.424
rradius 33.038
rwrist 20.5388
rhand -20.8797 1.93863
rfingers 7.12502
rthumb 5.49048 -27.9702
lclavicle -3.18055e-015 1.35174e-014
lhumerus -31.46 6.92408 86.45
lradius 30.887
lwrist -5.21003
lhand -12.611 28.0628
lfingers 7.12502
lthumb 13.4682 57.6073
rfemur -24.1549 1.18163 17.6818
rtibia 47.3363
rfoot -19.9349 -4.43703
rtoes 0.76506
lfemur -12.1651 3.91531 -27.9994
ltibia 25.3267
lfoot -15.4242 0.212757
ltoes -1.8874
94
root 1.12249 17.5778 12.8972 -175.005 -1.96087 177.251
lowerback 2.72278 -0.889099 -5.772
upperback -0.561437 -1.36285 1.22506
thorax -1.94455 -0.606678 4.56624
lowerneck -22.4327 -2.67128 -8.95865
upperneck 34.9055 0.779792 3.21841
head 16.2949 0.343236 3.35038
rclavicle -2.31087e-015 1.19271e-015
rhumerus -32.7688 -4.92946 -82.4887
rradius 33.0755
rwrist 20.4445
rhand -20.8739 1.80812
rfingers 7.12502
rthumb 5.49607 -28.1006
lclavicle -2.31087e-015 1.19271e-015
lhumerus -31.5635 6.98856 86.418
lradius 30.8536
lwrist -5.21165
lhand -12.7738 28.1559
lfingers 7.12502
lthumb 13.3112 57.7107
rfemur -24.6218 1.13091 17.695
rtibia 47.9991
rfoot -19.7811 -4.8761
rtoes -0.116863
lfemur -12.0839 3.99079 -28.0341
ltibia 25.2539
lfoot -15.4483 0.331939
ltoes -2.28282
